<svg width="224" height="90" viewBox="0 0 224 90" fill="none" xmlns="http://www.w3.org/2000/svg">
<path d="M30.2052 66.5466C29.8771 66.5466 29.5564 66.6439 29.2836 66.8262C29.0108 67.0084 28.7982 67.2675 28.6727 67.5706C28.5471 67.8737 28.5143 68.2073 28.5783 68.529C28.6423 68.8508 28.8003 69.1464 29.0323 69.3784C29.2643 69.6104 29.5598 69.7684 29.8816 69.8324C30.2034 69.8964 30.5369 69.8635 30.84 69.738C31.1431 69.6124 31.4022 69.3998 31.5845 69.127C31.7668 68.8542 31.864 68.5335 31.864 68.2054C31.864 67.7655 31.6893 67.3435 31.3782 67.0325C31.0671 66.7214 30.6452 66.5466 30.2052 66.5466V66.5466ZM36.564 69.8919C36.5371 68.7449 36.3223 67.6102 35.9282 66.5328C35.5767 65.6109 35.0296 64.7762 34.3246 64.086C33.6401 63.3775 32.8034 62.8339 31.8779 62.4963C30.8033 62.0901 29.6673 61.8704 28.5188 61.8466C27.0535 61.7637 26.5835 61.7637 22.8235 61.7637C19.0635 61.7637 18.5935 61.7637 17.1282 61.8466C15.9797 61.8704 14.8437 62.0901 13.7691 62.4963C12.8452 62.8373 12.0093 63.3804 11.3223 64.086C10.6138 64.7705 10.0702 65.6072 9.73264 66.5328C9.32646 67.6073 9.10673 68.7434 9.08294 69.8919C9 71.3572 9 71.8272 9 75.5872C9 79.3471 9 79.8171 9.08294 81.2824C9.10673 82.431 9.32646 83.567 9.73264 84.6415C10.0702 85.5671 10.6138 86.4038 11.3223 87.0883C12.0093 87.7939 12.8452 88.337 13.7691 88.678C14.8437 89.0842 15.9797 89.3039 17.1282 89.3277C18.5935 89.4106 19.0635 89.4106 22.8235 89.4106C26.5835 89.4106 27.0535 89.4106 28.5188 89.3277C29.6673 89.3039 30.8033 89.0842 31.8779 88.678C32.8034 88.3405 33.6401 87.7969 34.3246 87.0883C35.0327 86.4007 35.5803 85.5652 35.9282 84.6415C36.3223 83.5641 36.5371 82.4294 36.564 81.2824C36.564 79.8171 36.647 79.3471 36.647 75.5872C36.647 71.8272 36.647 71.3572 36.564 69.8919V69.8919ZM34.0758 81.1166C34.0657 81.994 33.9068 82.8634 33.6058 83.6877C33.3851 84.2893 33.0306 84.8329 32.569 85.2774C32.1207 85.7343 31.5782 86.0881 30.9793 86.3142C30.1551 86.6152 29.2857 86.7741 28.4082 86.7842C27.0258 86.8533 26.5144 86.8671 22.8788 86.8671C19.2432 86.8671 18.7317 86.8671 17.3494 86.7842C16.4383 86.8012 15.531 86.6609 14.6676 86.3695C14.095 86.1318 13.5774 85.7789 13.147 85.3327C12.6882 84.8886 12.3382 84.3446 12.1241 83.743C11.7866 82.9069 11.5994 82.0178 11.5712 81.1166C11.5712 79.7342 11.4882 79.2227 11.4882 75.5872C11.4882 71.9516 11.4882 71.4401 11.5712 70.0578C11.5774 69.1607 11.7411 68.2717 12.055 67.4313C12.2983 66.8478 12.6719 66.3277 13.147 65.9107C13.567 65.4354 14.0861 65.0579 14.6676 64.8048C15.5102 64.5008 16.3983 64.3419 17.2941 64.3348C18.6764 64.3348 19.1879 64.2519 22.8235 64.2519C26.4591 64.2519 26.9705 64.2519 28.3529 64.3348C29.2304 64.3449 30.0998 64.5038 30.9241 64.8048C31.5522 65.038 32.116 65.417 32.569 65.9107C33.022 66.3353 33.376 66.8545 33.6058 67.4313C33.913 68.2731 34.0721 69.1617 34.0758 70.0578C34.1449 71.4401 34.1587 71.9516 34.1587 75.5872C34.1587 79.2227 34.1449 79.7342 34.0758 81.1166ZM22.8235 68.4957C21.4215 68.4984 20.0518 68.9167 18.8875 69.6975C17.7231 70.4784 16.8163 71.5869 16.2817 72.8829C15.7471 74.179 15.6086 75.6044 15.8838 76.9791C16.159 78.3538 16.8355 79.6161 17.8278 80.6064C18.8201 81.5968 20.0837 82.2708 21.4589 82.5433C22.8341 82.8158 24.2593 82.6746 25.5543 82.1375C26.8493 81.6003 27.956 80.6914 28.7346 79.5255C29.5132 78.3596 29.9288 76.9891 29.9288 75.5872C29.9306 74.6542 29.748 73.7301 29.3914 72.868C29.0348 72.0059 28.5112 71.2228 27.8509 70.5638C27.1906 69.9047 26.4065 69.3827 25.5437 69.0278C24.6809 68.6729 23.7564 68.4921 22.8235 68.4957V68.4957ZM22.8235 80.1904C21.9131 80.1904 21.0231 79.9204 20.2661 79.4146C19.5091 78.9088 18.9191 78.1899 18.5707 77.3487C18.2223 76.5076 18.1311 75.5821 18.3087 74.6891C18.4863 73.7962 18.9247 72.976 19.5685 72.3322C20.2123 71.6884 21.0325 71.25 21.9254 71.0724C22.8184 70.8948 23.7439 70.9859 24.5851 71.3343C25.4262 71.6827 26.1451 72.2727 26.6509 73.0297C27.1567 73.7867 27.4267 74.6767 27.4267 75.5872C27.4267 76.1917 27.3076 76.7902 27.0763 77.3487C26.845 77.9072 26.5059 78.4147 26.0785 78.8421C25.651 79.2696 25.1436 79.6086 24.5851 79.84C24.0266 80.0713 23.428 80.1904 22.8235 80.1904V80.1904Z" fill="white"/>
<path d="M139.71 77.5668C139.332 77.1579 138.907 76.7946 138.445 76.4844C140.311 75.0414 141.619 72.9955 142.146 70.6959C142.185 70.5297 142.19 70.3575 142.162 70.1891C142.134 70.0207 142.073 69.8595 141.983 69.7148C141.892 69.5701 141.774 69.4447 141.635 69.3459C141.496 69.247 141.339 69.1766 141.172 69.1388C141.006 69.101 140.833 69.0964 140.665 69.1254C140.497 69.1544 140.336 69.2164 140.192 69.3077C140.048 69.3991 139.923 69.5181 139.825 69.6578C139.727 69.7975 139.658 69.9553 139.621 70.1219C139.376 71.1976 138.899 72.2069 138.224 73.0794C137.548 73.9519 136.691 74.6665 135.711 75.1736V70.4115C135.703 70.3162 135.684 70.2222 135.654 70.1313C135.646 70.0565 135.631 69.9825 135.61 69.9102C135.554 69.7924 135.482 69.6838 135.394 69.588C135.371 69.5605 135.359 69.5242 135.334 69.4988C135.239 69.4112 135.131 69.3383 135.015 69.2825C134.982 69.2649 134.957 69.2351 134.923 69.2204C134.824 69.1873 134.721 69.1662 134.617 69.1574C134.552 69.1386 134.487 69.1251 134.42 69.117L133.573 69.1144H133.569C133.267 69.1129 132.973 69.2182 132.74 69.4117C132.507 69.6053 132.35 69.8747 132.296 70.1726C132.241 70.4706 132.294 70.7781 132.444 71.0412C132.594 71.3042 132.832 71.506 133.116 71.6111V77.9422C131.065 75.8127 129.706 73.1119 129.22 70.1953C129.192 70.0277 129.13 69.8674 129.04 69.7234C128.95 69.5794 128.832 69.4546 128.693 69.3562C128.555 69.2578 128.398 69.1876 128.232 69.1497C128.067 69.1118 127.895 69.1069 127.728 69.1353C127.56 69.1637 127.4 69.2248 127.256 69.3152C127.112 69.4055 126.987 69.5234 126.888 69.6619C126.79 69.8005 126.72 69.9571 126.682 70.1228C126.644 70.2885 126.639 70.4601 126.668 70.6277C127.424 75.136 129.938 79.1601 133.658 81.817C133.711 81.8488 133.766 81.8767 133.823 81.9005C133.868 81.9268 133.915 81.9503 133.962 81.9706C134.107 82.0284 134.261 82.0595 134.416 82.0623C134.607 82.06 134.794 82.0149 134.965 81.9304C134.978 81.9244 134.993 81.9272 135.005 81.9207C135.12 81.8611 135.225 81.7846 135.316 81.6938C135.335 81.6759 135.347 81.6538 135.364 81.6348C135.448 81.5431 135.518 81.4396 135.571 81.3278C135.589 81.2907 135.606 81.2552 135.62 81.2162C135.677 81.0734 135.708 80.9215 135.711 80.7678L135.712 78.0156C136.514 78.2511 137.236 78.7008 137.802 79.3164L139.935 81.6425C140.05 81.7682 140.188 81.8701 140.343 81.9422C140.497 82.0143 140.664 82.0553 140.834 82.0629C141.004 82.0704 141.174 82.0443 141.334 81.9861C141.493 81.9279 141.64 81.8388 141.766 81.7237C141.891 81.6087 141.993 81.47 142.065 81.3157C142.136 81.1613 142.177 80.9943 142.184 80.8243C142.191 80.6542 142.165 80.4844 142.106 80.3246C142.048 80.1648 141.958 80.0181 141.843 79.8929L139.71 77.5668ZM138.842 61.3472H130.899C122.929 61.3472 120.624 63.6493 120.624 71.6086V79.5516C120.624 87.5223 122.925 89.8269 130.886 89.8269H138.828C146.799 89.8269 149.104 87.5248 149.104 79.5655V71.6225C149.104 63.6518 146.802 61.3472 138.842 61.3472ZM146.515 79.5655C146.515 86.09 145.366 87.2378 138.828 87.2378H130.886C124.36 87.2378 123.213 86.0887 123.213 79.5516V71.6086C123.213 65.0841 124.362 63.9362 130.899 63.9362H138.842C145.367 63.9362 146.515 65.0854 146.515 71.6225V79.5655Z" fill="white"/>
<path d="M204.756 73.3128L200.268 70.7096C199.869 70.474 199.415 70.3498 198.951 70.3498C198.488 70.3498 198.034 70.474 197.635 70.7096C197.233 70.9361 196.9 71.267 196.671 71.6674C196.442 72.0677 196.325 72.5225 196.333 72.9837V78.1901C196.325 78.6512 196.442 79.1061 196.671 79.5064C196.9 79.9067 197.233 80.2376 197.635 80.4641C198.034 80.6997 198.488 80.824 198.951 80.824C199.415 80.824 199.869 80.6997 200.268 80.4641L204.756 77.8609C205.14 77.6254 205.457 77.2955 205.677 76.9026C205.897 76.5097 206.012 76.067 206.012 75.6168C206.012 75.1666 205.897 74.7239 205.677 74.331C205.457 73.9381 205.14 73.6082 204.756 73.3727V73.3128ZM199.296 77.5617V73.612L202.707 75.5869L199.296 77.5617ZM210.905 63.6182H189.96C188.77 63.6182 187.628 64.091 186.786 64.9327C185.945 65.7745 185.472 66.9161 185.472 68.1064V83.0673C185.472 84.2577 185.945 85.3993 186.786 86.241C187.628 87.0827 188.77 87.5556 189.96 87.5556H210.905C212.096 87.5556 213.237 87.0827 214.079 86.241C214.921 85.3993 215.393 84.2577 215.393 83.0673V68.1064C215.393 66.9161 214.921 65.7745 214.079 64.9327C213.237 64.091 212.096 63.6182 210.905 63.6182V63.6182ZM212.401 83.0673C212.401 83.4641 212.244 83.8446 211.963 84.1252C211.682 84.4058 211.302 84.5634 210.905 84.5634H189.96C189.563 84.5634 189.183 84.4058 188.902 84.1252C188.621 83.8446 188.464 83.4641 188.464 83.0673V68.1064C188.464 67.7096 188.621 67.3291 188.902 67.0485C189.183 66.768 189.563 66.6103 189.96 66.6103H210.905C211.302 66.6103 211.682 66.768 211.963 67.0485C212.244 67.3291 212.401 67.7096 212.401 68.1064V83.0673Z" fill="white"/>
<path d="M82.2221 68.3597H84.2562V64.9191C83.2714 64.8167 82.2818 64.7661 81.2916 64.7676C78.3487 64.7676 76.3363 66.5637 76.3363 69.8528V72.6876H73.0146V76.5393H76.3363V86.4068H80.3179V76.5393H83.6287L84.1264 72.6876H80.3179V70.2315C80.3179 69.0955 80.6208 68.3597 82.2221 68.3597Z" fill="white"/>
<path d="M128.705 29.0729V3.82242H150.173C152.825 3.82242 154.88 4.48165 156.338 5.80008C157.819 7.11854 158.56 9.11972 158.56 11.8037C158.56 14.4876 157.819 16.4889 156.338 17.8073C154.88 19.1257 152.825 19.7849 150.173 19.7849H134.439V29.0729H128.705ZM149.492 8.41342H134.439V15.1586L149.492 15.194C150.544 15.194 151.344 14.935 151.894 14.417C152.467 13.8991 152.754 13.028 152.754 11.8037C152.754 10.5559 152.467 9.68477 151.894 9.19035C151.344 8.67242 150.544 8.41342 149.492 8.41342ZM157.118 29.0729L168.659 3.82242H177.511L189.052 29.0729H182.815L180.378 23.7403H165.791L163.354 29.0729H157.118ZM167.87 19.1493H178.3L173.318 8.23684H172.852L167.87 19.1493ZM192.282 29.0729V3.82242H196.511L207.98 3.78711C212.615 3.78711 216.211 4.85836 218.768 7.0008C221.324 9.14328 222.603 12.2863 222.603 16.43C222.603 20.5737 221.324 23.7167 218.768 25.8592C216.211 28.0017 212.615 29.0729 207.98 29.0729H192.282ZM207.586 8.3781H198.016V24.4819H207.586C210.596 24.4819 212.878 23.8344 214.431 22.5395C215.984 21.2447 216.761 19.2081 216.761 16.43C216.761 13.6283 215.984 11.5918 214.431 10.3204C212.878 9.02557 210.596 8.3781 207.586 8.3781Z" fill="white"/>
<path d="M0.694824 29.0732L12.2353 3.82275H21.0878L32.6283 29.0732H26.3921L23.955 23.7406H9.36811L6.93099 29.0732H0.694824ZM11.4468 19.1496H21.8763L16.8945 8.23717H16.4286L11.4468 19.1496ZM35.8587 29.0732V3.82275H57.3269C59.979 3.82275 62.0337 4.48198 63.4913 5.80041C64.9726 7.11887 65.7134 9.12005 65.7134 11.804C65.7134 14.0878 65.1758 15.8771 64.1006 17.1719C63.0254 18.4668 61.4961 19.2791 59.5131 19.6087L65.4267 29.0732H58.9038L53.4203 19.7853H41.5931V29.0732H35.8587ZM56.6459 8.41375H41.5931V15.159L56.6459 15.1943C57.6971 15.1943 58.4974 14.9353 59.0472 14.4173C59.6206 13.8994 59.9073 13.0283 59.9073 11.804C59.9073 10.5562 59.6206 9.6851 59.0472 9.19068C58.4974 8.67275 57.6971 8.41375 56.6459 8.41375ZM69.4811 16.6069V3.82275H101.02V16.6069H95.2142V8.41375H87.4011V29.0732H81.6667V8.41375H75.2872V16.6069H69.4811Z" fill="white"/>
<path d="M115.014 3.81396V29.7083" stroke="#171FEE" stroke-width="5"/>
</svg>
