<svg width="734" height="127" viewBox="0 0 734 127" fill="none" xmlns="http://www.w3.org/2000/svg">
<g clip-path="url(#clip0_799_4719)">
<path d="M421.204 108.203V28.1231H488.292C496.58 28.1231 503.002 30.2138 507.556 34.3951C512.186 38.5765 514.5 44.9231 514.5 53.4351C514.5 61.9471 512.186 68.2938 507.556 72.4751C503.002 76.6565 496.58 78.7471 488.292 78.7471H439.124V108.203H421.204ZM486.164 42.6831H439.124V64.0751L486.164 64.1871C489.45 64.1871 491.951 63.3658 493.668 61.7231C495.46 60.0805 496.356 57.3178 496.356 53.4351C496.356 49.4778 495.46 46.7151 493.668 45.1471C491.951 43.5045 489.45 42.6831 486.164 42.6831ZM509.995 108.203L546.059 28.1231H573.723L609.787 108.203H590.299L582.683 91.2911H537.099L529.483 108.203H509.995ZM543.595 76.7311H576.187L560.619 42.1231H559.163L543.595 76.7311ZM619.882 108.203V28.1231H633.098L668.938 28.0111C683.423 28.0111 694.661 31.4085 702.65 38.2031C710.639 44.9978 714.634 54.9658 714.634 68.1071C714.634 81.2485 710.639 91.2165 702.65 98.0111C694.661 104.806 683.423 108.203 668.938 108.203H619.882ZM667.706 42.5711H637.802V93.6431H667.706C677.114 93.6431 684.245 91.5898 689.098 87.4831C693.951 83.3765 696.378 76.9178 696.378 68.1071C696.378 59.2218 693.951 52.7631 689.098 48.7311C684.245 44.6245 677.114 42.5711 667.706 42.5711Z" fill="white"/>
<path d="M21.1719 108.203L57.2359 28.1231H84.8999L120.964 108.203H101.476L93.8599 91.2911H48.2759L40.6599 108.203H21.1719ZM54.7719 76.7311H87.3639L71.7959 42.1231H70.3399L54.7719 76.7311ZM131.059 108.203V28.1231H198.147C206.435 28.1231 212.856 30.2138 217.411 34.3951C222.04 38.5765 224.355 44.9231 224.355 53.4351C224.355 60.6778 222.675 66.3525 219.315 70.4591C215.955 74.5658 211.176 77.1418 204.979 78.1871L223.459 108.203H203.075L185.939 78.7471H148.979V108.203H131.059ZM196.019 42.6831H148.979V64.0751L196.019 64.1871C199.304 64.1871 201.805 63.3658 203.523 61.7231C205.315 60.0805 206.211 57.3178 206.211 53.4351C206.211 49.4778 205.315 46.7151 203.523 45.1471C201.805 43.5045 199.304 42.6831 196.019 42.6831ZM236.129 68.6671V28.1231H334.689V68.6671H316.545V42.6831H292.129V108.203H274.209V42.6831H254.273V68.6671H236.129Z" fill="white"/>
<path d="M378.418 28.0957L378.418 110.218" stroke="#171FEE" stroke-width="18"/>
</g>
<defs>
<clipPath id="clip0_799_4719">
<rect width="734" height="127" fill="white"/>
</clipPath>
</defs>
</svg>
