<svg width="700" height="111" viewBox="0 0 700 111" fill="none" xmlns="http://www.w3.org/2000/svg">
<path d="M402.204 92.2031V12.1231H469.292C477.58 12.1231 484.002 14.2138 488.556 18.3951C493.186 22.5765 495.5 28.9231 495.5 37.4351C495.5 45.9471 493.186 52.2938 488.556 56.4751C484.002 60.6565 477.58 62.7471 469.292 62.7471H420.124V92.2031H402.204ZM467.164 26.6831H420.124V48.0751L467.164 48.1871C470.45 48.1871 472.951 47.3658 474.668 45.7231C476.46 44.0805 477.356 41.3178 477.356 37.4351C477.356 33.4778 476.46 30.7151 474.668 29.1471C472.951 27.5045 470.45 26.6831 467.164 26.6831ZM490.995 92.2031L527.059 12.1231H554.723L590.787 92.2031H571.299L563.683 75.2911H518.099L510.483 92.2031H490.995ZM524.595 60.7311H557.187L541.619 26.1231H540.163L524.595 60.7311ZM600.882 92.2031V12.1231H614.098L649.938 12.0111C664.423 12.0111 675.661 15.4085 683.65 22.2031C691.639 28.9978 695.634 38.9658 695.634 52.1071C695.634 65.2485 691.639 75.2165 683.65 82.0111C675.661 88.8058 664.423 92.2031 649.938 92.2031H600.882ZM648.706 26.5711H618.802V77.6431H648.706C658.114 77.6431 665.245 75.5898 670.098 71.4831C674.951 67.3765 677.378 60.9178 677.378 52.1071C677.378 43.2218 674.951 36.7631 670.098 32.7311C665.245 28.6245 658.114 26.5711 648.706 26.5711Z" fill="white"/>
<path d="M2.17188 92.2031L38.2359 12.1231H65.8999L101.964 92.2031H82.4759L74.8599 75.2911H29.2759L21.6599 92.2031H2.17188ZM35.7719 60.7311H68.3639L52.7959 26.1231H51.3399L35.7719 60.7311ZM112.059 92.2031V12.1231H179.147C187.435 12.1231 193.856 14.2138 198.411 18.3951C203.04 22.5765 205.355 28.9231 205.355 37.4351C205.355 44.6778 203.675 50.3525 200.315 54.4591C196.955 58.5658 192.176 61.1418 185.979 62.1871L204.459 92.2031H184.075L166.939 62.7471H129.979V92.2031H112.059ZM177.019 26.6831H129.979V48.0751L177.019 48.1871C180.304 48.1871 182.805 47.3658 184.523 45.7231C186.315 44.0805 187.211 41.3178 187.211 37.4351C187.211 33.4778 186.315 30.7151 184.523 29.1471C182.805 27.5045 180.304 26.6831 177.019 26.6831ZM217.129 52.6671V12.1231H315.689V52.6671H297.545V26.6831H273.129V92.2031H255.209V26.6831H235.273V52.6671H217.129Z" fill="white"/>
<path d="M359.418 12.0957L359.418 94.2178" stroke="#171FEE" stroke-width="18"/>
</svg>
