<svg width="207" height="29" viewBox="0 0 207 29" fill="none" xmlns="http://www.w3.org/2000/svg">
<path d="M21.2052 5.5466C20.8771 5.5466 20.5564 5.64389 20.2836 5.82616C20.0108 6.00843 19.7982 6.2675 19.6727 6.57061C19.5471 6.87372 19.5143 7.20726 19.5783 7.52904C19.6423 7.85082 19.8003 8.14639 20.0323 8.37838C20.2643 8.61037 20.5598 8.76836 20.8816 8.83236C21.2034 8.89637 21.5369 8.86352 21.84 8.73796C22.1431 8.61241 22.4022 8.3998 22.5845 8.12701C22.7668 7.85422 22.864 7.5335 22.864 7.20542C22.864 6.76547 22.6893 6.34354 22.3782 6.03245C22.0671 5.72137 21.6452 5.5466 21.2052 5.5466V5.5466ZM27.564 8.89188C27.5371 7.74494 27.3223 6.61018 26.9282 5.53277C26.5767 4.61093 26.0296 3.77619 25.3246 3.08602C24.6401 2.37746 23.8034 1.83385 22.8779 1.49632C21.8033 1.09013 20.6673 0.870403 19.5188 0.846613C18.0535 0.763672 17.5835 0.763672 13.8235 0.763672C10.0635 0.763672 9.5935 0.763672 8.12821 0.846613C6.97969 0.870403 5.84366 1.09013 4.7691 1.49632C3.84525 1.83727 3.00928 2.38041 2.32235 3.08602C1.61379 3.77053 1.07018 4.60721 0.732645 5.53277C0.326457 6.60733 0.106731 7.74336 0.0829408 8.89188C-7.72448e-08 10.3572 0 10.8272 0 14.5872C0 18.3471 -7.72448e-08 18.8171 0.0829408 20.2824C0.106731 21.431 0.326457 22.567 0.732645 23.6415C1.07018 24.5671 1.61379 25.4038 2.32235 26.0883C3.00928 26.7939 3.84525 27.337 4.7691 27.678C5.84366 28.0842 6.97969 28.3039 8.12821 28.3277C9.5935 28.4106 10.0635 28.4106 13.8235 28.4106C17.5835 28.4106 18.0535 28.4106 19.5188 28.3277C20.6673 28.3039 21.8033 28.0842 22.8779 27.678C23.8034 27.3405 24.6401 26.7969 25.3246 26.0883C26.0327 25.4007 26.5803 24.5652 26.9282 23.6415C27.3223 22.5641 27.5371 21.4294 27.564 20.2824C27.564 18.8171 27.647 18.3471 27.647 14.5872C27.647 10.8272 27.647 10.3572 27.564 8.89188V8.89188ZM25.0758 20.1166C25.0657 20.994 24.9068 21.8634 24.6058 22.6877C24.3851 23.2893 24.0306 23.8329 23.569 24.2774C23.1207 24.7343 22.5782 25.0881 21.9793 25.3142C21.1551 25.6152 20.2857 25.7741 19.4082 25.7842C18.0258 25.8533 17.5144 25.8671 13.8788 25.8671C10.2432 25.8671 9.73173 25.8671 8.34939 25.7842C7.43827 25.8012 6.53104 25.6609 5.66763 25.3695C5.09504 25.1318 4.57745 24.7789 4.14705 24.3327C3.68823 23.8886 3.33816 23.3446 3.12411 22.743C2.78662 21.9069 2.59943 21.0178 2.57117 20.1166C2.57117 18.7342 2.48823 18.2227 2.48823 14.5872C2.48823 10.9516 2.48823 10.4401 2.57117 9.05776C2.57736 8.1607 2.74113 7.27169 3.05499 6.4313C3.29835 5.84783 3.67188 5.32771 4.14705 4.91072C4.56702 4.43542 5.08606 4.05794 5.66763 3.80484C6.51024 3.50078 7.39833 3.34186 8.29409 3.33484C9.67644 3.33484 10.1879 3.2519 13.8235 3.2519C17.4591 3.2519 17.9705 3.2519 19.3529 3.33484C20.2304 3.3449 21.0998 3.50383 21.9241 3.80484C22.5522 4.03798 23.116 4.41701 23.569 4.91072C24.022 5.33535 24.376 5.85449 24.6058 6.4313C24.913 7.27306 25.0721 8.1617 25.0758 9.05776C25.1449 10.4401 25.1587 10.9516 25.1587 14.5872C25.1587 18.2227 25.1449 18.7342 25.0758 20.1166ZM13.8235 7.49571C12.4215 7.49844 11.0518 7.91667 9.88746 8.69755C8.7231 9.47843 7.81632 10.5869 7.28171 11.8829C6.74709 13.179 6.60863 14.6044 6.88381 15.9791C7.159 17.3538 7.83548 18.6161 8.82778 19.6064C9.82009 20.5968 11.0837 21.2708 12.4589 21.5433C13.8341 21.8158 15.2593 21.6746 16.5543 21.1375C17.8493 20.6003 18.956 19.6914 19.7346 18.5255C20.5132 17.3596 20.9288 15.9891 20.9288 14.5872C20.9306 13.6542 20.748 12.7301 20.3914 11.868C20.0348 11.0059 19.5112 10.2228 18.8509 9.56377C18.1906 8.90473 17.4065 8.38273 16.5437 8.02782C15.6809 7.6729 14.7564 7.49206 13.8235 7.49571V7.49571ZM13.8235 19.1904C12.9131 19.1904 12.0231 18.9204 11.2661 18.4146C10.5091 17.9088 9.91907 17.1899 9.57066 16.3487C9.22226 15.5076 9.1311 14.5821 9.30872 13.6891C9.48633 12.7962 9.92475 11.976 10.5685 11.3322C11.2123 10.6884 12.0325 10.25 12.9254 10.0724C13.8184 9.89477 14.7439 9.98593 15.5851 10.3343C16.4262 10.6827 17.1451 11.2727 17.6509 12.0297C18.1567 12.7867 18.4267 13.6767 18.4267 14.5872C18.4267 15.1917 18.3076 15.7902 18.0763 16.3487C17.845 16.9072 17.5059 17.4147 17.0785 17.8421C16.651 18.2696 16.1436 18.6086 15.5851 18.84C15.0266 19.0713 14.428 19.1904 13.8235 19.1904V19.1904Z" fill="white"/>
<path d="M130.71 16.5668C130.332 16.1579 129.907 15.7946 129.445 15.4844C131.311 14.0414 132.619 11.9955 133.146 9.69588C133.185 9.52969 133.19 9.35746 133.162 9.18909C133.134 9.02072 133.073 8.85954 132.983 8.71483C132.892 8.57012 132.774 8.44473 132.635 8.34587C132.496 8.24701 132.339 8.17664 132.172 8.1388C132.006 8.10097 131.833 8.09641 131.665 8.12541C131.497 8.1544 131.336 8.21636 131.192 8.30774C131.048 8.39911 130.923 8.51808 130.825 8.65781C130.727 8.79755 130.658 8.95528 130.621 9.12193C130.376 10.1976 129.899 11.2069 129.224 12.0794C128.548 12.9519 127.691 13.6665 126.711 14.1736V9.41149C126.703 9.31623 126.684 9.22222 126.654 9.13132C126.646 9.05647 126.631 8.98248 126.61 8.91017C126.554 8.79244 126.482 8.68379 126.394 8.58795C126.371 8.56045 126.359 8.52419 126.334 8.49876C126.239 8.41121 126.131 8.33832 126.015 8.28249C125.982 8.26487 125.957 8.23509 125.923 8.22035C125.824 8.18731 125.721 8.16617 125.617 8.15738C125.552 8.13856 125.487 8.12506 125.42 8.117L124.573 8.11437H124.569C124.267 8.11293 123.973 8.21821 123.74 8.41173C123.507 8.60525 123.35 8.87465 123.296 9.17263C123.241 9.4706 123.294 9.77811 123.444 10.0412C123.594 10.3042 123.832 10.506 124.116 10.6111V16.9422C122.065 14.8127 120.706 12.1119 120.22 9.19531C120.192 9.02771 120.13 8.86735 120.04 8.72338C119.95 8.57941 119.832 8.45465 119.693 8.35621C119.555 8.25778 119.398 8.18761 119.232 8.1497C119.067 8.1118 118.895 8.1069 118.728 8.13529C118.56 8.16368 118.4 8.2248 118.256 8.31517C118.112 8.40553 117.987 8.52337 117.888 8.66195C117.79 8.80053 117.72 8.95714 117.682 9.12284C117.644 9.28854 117.639 9.46009 117.668 9.62768C118.424 14.136 120.938 18.1601 124.658 20.817C124.711 20.8488 124.766 20.8767 124.823 20.9005C124.868 20.9268 124.915 20.9503 124.962 20.9706C125.107 21.0284 125.261 21.0595 125.416 21.0623C125.607 21.06 125.794 21.0149 125.965 20.9304C125.978 20.9244 125.993 20.9272 126.005 20.9207C126.12 20.8611 126.225 20.7846 126.316 20.6938C126.335 20.6759 126.347 20.6538 126.364 20.6348C126.448 20.5431 126.518 20.4396 126.571 20.3278C126.589 20.2907 126.606 20.2552 126.62 20.2162C126.677 20.0734 126.708 19.9215 126.711 19.7678L126.712 17.0156C127.514 17.2511 128.236 17.7008 128.802 18.3164L130.935 20.6425C131.05 20.7682 131.188 20.8701 131.343 20.9422C131.497 21.0143 131.664 21.0553 131.834 21.0629C132.004 21.0704 132.174 21.0443 132.334 20.9861C132.493 20.9279 132.64 20.8388 132.766 20.7237C132.891 20.6087 132.993 20.47 133.065 20.3157C133.136 20.1613 133.177 19.9943 133.184 19.8243C133.191 19.6542 133.165 19.4844 133.106 19.3246C133.048 19.1648 132.958 19.0181 132.843 18.8929L130.71 16.5668ZM129.842 0.347168H121.899C113.929 0.347168 111.624 2.64926 111.624 10.6086V18.5516C111.624 26.5223 113.925 28.8269 121.886 28.8269H129.828C137.799 28.8269 140.104 26.5248 140.104 18.5655V10.6225C140.104 2.65179 137.802 0.347168 129.842 0.347168ZM137.515 18.5655C137.515 25.09 136.366 26.2378 129.828 26.2378H121.886C115.36 26.2378 114.213 25.0887 114.213 18.5516V10.6086C114.213 4.08412 115.362 2.93624 121.899 2.93624H129.842C136.367 2.93624 137.515 4.08539 137.515 10.6225V18.5655Z" fill="white"/>
<path d="M195.756 12.3128L191.268 9.70962C190.869 9.47403 190.415 9.34976 189.951 9.34976C189.488 9.34976 189.034 9.47403 188.635 9.70962C188.233 9.93613 187.9 10.267 187.671 10.6674C187.442 11.0677 187.325 11.5225 187.333 11.9837V17.1901C187.325 17.6512 187.442 18.1061 187.671 18.5064C187.9 18.9067 188.233 19.2376 188.635 19.4641C189.034 19.6997 189.488 19.824 189.951 19.824C190.415 19.824 190.869 19.6997 191.268 19.4641L195.756 16.8609C196.14 16.6254 196.457 16.2955 196.677 15.9026C196.897 15.5097 197.012 15.067 197.012 14.6168C197.012 14.1666 196.897 13.7239 196.677 13.331C196.457 12.9381 196.14 12.6082 195.756 12.3727V12.3128ZM190.296 16.5617V12.612L193.707 14.5869L190.296 16.5617ZM201.905 2.61816H180.96C179.77 2.61816 178.628 3.09103 177.786 3.93275C176.945 4.77446 176.472 5.91607 176.472 7.10643V22.0673C176.472 23.2577 176.945 24.3993 177.786 25.241C178.628 26.0827 179.77 26.5556 180.96 26.5556H201.905C203.096 26.5556 204.237 26.0827 205.079 25.241C205.921 24.3993 206.393 23.2577 206.393 22.0673V7.10643C206.393 5.91607 205.921 4.77446 205.079 3.93275C204.237 3.09103 203.096 2.61816 201.905 2.61816V2.61816ZM203.401 22.0673C203.401 22.4641 203.244 22.8446 202.963 23.1252C202.682 23.4058 202.302 23.5634 201.905 23.5634H180.96C180.563 23.5634 180.183 23.4058 179.902 23.1252C179.621 22.8446 179.464 22.4641 179.464 22.0673V7.10643C179.464 6.70964 179.621 6.3291 179.902 6.04853C180.183 5.76796 180.563 5.61034 180.96 5.61034H201.905C202.302 5.61034 202.682 5.76796 202.963 6.04853C203.244 6.3291 203.401 6.70964 203.401 7.10643V22.0673Z" fill="white"/>
<path d="M73.2221 7.35972H75.2562V3.91908C74.2714 3.81667 73.2818 3.76611 72.2916 3.76761C69.3487 3.76761 67.3363 5.56366 67.3363 8.85282V11.6876H64.0146V15.5393H67.3363V25.4068H71.3179V15.5393H74.6287L75.1264 11.6876H71.3179V9.23151C71.3179 8.09545 71.6208 7.35972 73.2221 7.35972Z" fill="white"/>
</svg>
